<svg width="32" height="32" viewBox="0 0 32 32" fill="none" xmlns="http://www.w3.org/2000/svg">
<path d="M9.16103 26.4271C8.16655 26.4271 7.36209 26.4257 6.55727 26.4282C6.31858 26.4289 6.08097 26.4164 5.84335 26.3931C5.22712 26.3327 4.83563 25.69 5.06752 25.1163C5.2647 24.6282 5.55277 24.1877 5.81007 23.7314C6.51469 22.4807 7.22467 21.2332 7.93359 19.985C8.76631 18.5196 9.60119 17.0553 10.4339 15.5895C11.1783 14.2794 11.9208 12.9678 12.6644 11.657C13.4345 10.2997 14.2039 8.94195 14.9762 7.58604C15.2002 7.19276 15.4042 6.78659 15.6769 6.42372C16.0075 5.98428 16.4731 5.88229 16.9383 6.13816C17.1509 6.25517 17.2772 6.45486 17.3939 6.65454C17.8866 7.49801 18.3755 8.34398 18.8593 9.19245C19.3281 10.0152 19.8223 10.8239 20.2588 11.6649C20.7298 12.5717 20.7373 13.4892 20.2463 14.3846C19.5274 15.6954 18.7848 16.993 18.0505 18.2952C17.3452 19.5456 16.6441 20.7981 15.9288 22.0427C15.3265 23.0908 14.7808 24.173 14.1095 25.1796C13.6113 25.9265 12.8967 26.3416 11.9913 26.3992C10.985 26.4633 9.97766 26.4064 9.16103 26.4271Z" fill="#DBDBDB"/>
<path d="M23.2756 26.427C22.221 26.427 21.1668 26.427 20.1122 26.427C19.8974 26.427 19.6842 26.4084 19.4702 26.3977C18.8897 26.3691 18.4098 25.6616 18.6875 25.0794C18.9549 24.519 19.2826 23.9936 19.5925 23.4579C20.3591 22.1335 21.1317 20.8123 21.9047 19.4918C22.124 19.1171 22.3223 18.7285 22.6061 18.395C22.9557 17.9838 23.5973 17.9691 23.967 18.3653C24.2214 18.638 24.3917 18.9686 24.5785 19.286C25.5537 20.944 26.5253 22.6037 27.4933 24.2656C27.6575 24.5479 27.8325 24.8264 27.9435 25.1373C28.1482 25.7103 27.776 26.3165 27.1705 26.3905C26.9397 26.4188 26.7078 26.4281 26.4752 26.4278C25.4088 26.4263 24.3424 26.427 23.276 26.427H23.2756Z" fill="#DBDBDB"/>
</svg>
