<svg width="192" height="38" viewBox="0 0 192 38" fill="none" xmlns="http://www.w3.org/2000/svg">
<path d="M50.2288 29.3231L48.2571 30.1741L51.7809 18.2662H55.5625L49.5096 37.3237H45.812L48.0294 30.3899L49.7434 31.7682H45.6322L41.5331 18.2603H45.3446L48.2631 29.3231H50.2348H50.2288Z" fill="#303030"/>
<path d="M64.7318 32.3674L64.8636 28.9154L64.7617 28.5978V24.1811L64.7497 23.5458C64.7497 22.6229 64.498 21.9517 63.9886 21.5202C63.4912 21.0887 62.6702 20.873 61.5315 20.873C60.5607 20.873 59.6498 21.0048 58.7988 21.2625C57.9538 21.5142 57.1747 21.8019 56.4556 22.1375L56.7732 19.201C57.1927 18.9792 57.6721 18.7755 58.2115 18.5837C58.7568 18.3799 59.3681 18.2181 60.0393 18.0923C60.7105 17.9664 61.4357 17.9065 62.2087 17.9065C63.3594 17.9065 64.3302 18.0443 65.1273 18.326C65.9243 18.5957 66.5536 18.9852 67.027 19.4886C67.5065 19.998 67.8541 20.6033 68.0638 21.3165C68.2736 22.0176 68.3814 22.7907 68.3814 23.6477V32.3614H64.7437L64.7318 32.3674ZM60.1172 32.697C58.7149 32.697 57.6481 32.3494 56.911 31.6482C56.1799 30.947 55.8203 29.9522 55.8203 28.6578V28.2562C55.8203 26.8839 56.2398 25.8711 57.0848 25.2238C57.9298 24.5646 59.2662 24.1091 61.1001 23.8574L65.0973 23.3121L65.3131 25.6853L61.6334 26.2186C60.8304 26.3265 60.2551 26.5183 59.9075 26.794C59.5719 27.0696 59.4041 27.4772 59.4041 28.0165V28.1603C59.4041 28.6877 59.5659 29.1012 59.8955 29.3949C60.2311 29.6825 60.7525 29.8264 61.4656 29.8264C62.1009 29.8264 62.6402 29.7245 63.0897 29.5267C63.5392 29.323 63.9107 29.0593 64.1984 28.7357C64.498 28.4001 64.7078 28.0285 64.8336 27.615L65.349 29.4428H64.7138C64.558 30.0481 64.3122 30.5995 63.9647 31.0969C63.6291 31.5883 63.1556 31.9778 62.5383 32.2775C61.9271 32.5651 61.118 32.7089 60.1232 32.7089L60.1172 32.697Z" fill="#303030"/>
<path d="M77.8803 29.3231L75.9086 30.1741L79.4324 18.2662H83.2139L77.1611 37.3237H73.4635L75.6809 30.3899L77.3948 31.7682H73.2837L69.1846 18.2603H72.996L75.9146 29.3231H77.8863H77.8803Z" fill="#303030"/>
<path d="M98.9753 32.3672V23.8933C98.9753 23.3 98.8914 22.7846 98.7296 22.3531C98.5737 21.9216 98.316 21.586 97.9505 21.3463C97.5849 21.1066 97.0875 20.9867 96.4523 20.9867C95.8949 20.9867 95.4095 21.0886 94.984 21.2864C94.5705 21.4901 94.2289 21.7598 93.9652 22.1074C93.7075 22.443 93.5097 22.8265 93.3779 23.258L92.8026 21.2444H93.4918C93.6476 20.6212 93.8993 20.0578 94.2529 19.5604C94.6184 19.063 95.1039 18.6675 95.7211 18.3798C96.3444 18.0802 97.1235 17.9363 98.0524 17.9363C99.1371 17.9363 100.012 18.1401 100.683 18.5536C101.354 18.9551 101.846 19.5604 102.163 20.3635C102.487 21.1665 102.655 22.1673 102.655 23.3539V32.3553H98.9753V32.3672ZM89.7822 32.3672V18.26H93.4618L93.318 21.6999L93.4618 21.9995V32.3672H89.7822Z" fill="#303030"/>
<path d="M111.938 32.715C109.523 32.715 107.725 32.1577 106.544 31.049C105.364 29.9343 104.776 28.3282 104.776 26.2187V24.3789C104.776 22.2874 105.328 20.6813 106.43 19.5606C107.533 18.4399 109.133 17.8766 111.237 17.8766C112.657 17.8766 113.838 18.1283 114.79 18.6257C115.743 19.1231 116.45 19.8363 116.918 20.7532C117.397 21.6641 117.637 22.7548 117.637 24.0313V24.5347C117.637 24.8823 117.619 25.2359 117.577 25.6014C117.547 25.955 117.505 26.2906 117.445 26.6082H114.107C114.137 26.0809 114.149 25.5835 114.149 25.11C114.161 24.6306 114.161 24.1991 114.161 23.8155C114.161 23.1563 114.053 22.593 113.844 22.1315C113.634 21.6641 113.31 21.3045 112.879 21.0648C112.447 20.8251 111.896 20.7052 111.225 20.7052C110.236 20.7052 109.511 20.9809 109.037 21.5263C108.57 22.0716 108.33 22.8507 108.33 23.8575V25.164L108.342 25.5835V26.6921C108.342 27.1356 108.408 27.5431 108.546 27.9147C108.69 28.2863 108.923 28.6159 109.253 28.8915C109.577 29.1612 110.008 29.371 110.547 29.5268C111.093 29.6826 111.776 29.7545 112.591 29.7545C113.472 29.7545 114.311 29.6586 115.108 29.4669C115.911 29.2631 116.678 28.9994 117.397 28.6638L117.08 31.5704C116.438 31.9239 115.677 32.2056 114.808 32.4034C113.945 32.6131 112.987 32.721 111.932 32.721L111.938 32.715ZM106.73 26.6022V24.1571H116.696V26.6022H106.73Z" fill="#303030"/>
<path d="M125.344 32.6729C124.145 32.6729 123.186 32.4931 122.467 32.1395C121.76 31.774 121.245 31.2286 120.927 30.4975C120.609 29.7663 120.454 28.8734 120.454 27.8067V19.5784H124.109V27.2613C124.109 28.0284 124.283 28.5917 124.625 28.9573C124.978 29.3109 125.596 29.4907 126.483 29.4907C126.998 29.4907 127.501 29.4367 127.981 29.3349C128.46 29.221 128.904 29.0712 129.305 28.8914L128.988 31.9717C128.508 32.1935 127.957 32.3673 127.334 32.4871C126.722 32.613 126.057 32.6729 125.35 32.6729H125.344ZM118.41 21.2804V18.3738H129.167L128.85 21.2804H118.41ZM120.496 18.6495L120.484 14.91L124.151 14.5384L124.007 18.6495H120.496Z" fill="#303030"/>
<path d="M132.835 32.3675L129.784 18.2603H133.554L135.627 29.7546H135.885L137.982 18.6198H142.729L144.844 29.7546H145.09L147.188 18.2603H150.915L147.865 32.3675H142.513L140.787 23.0306L140.47 21.2927H140.254L139.936 23.0306L138.198 32.3675H132.835Z" fill="#303030"/>
<path d="M158.431 32.757C156.243 32.757 154.583 32.1937 153.457 31.073C152.336 29.9523 151.773 28.3522 151.773 26.2847V24.373C151.773 22.2934 152.336 20.6933 153.457 19.5667C154.589 18.434 156.249 17.8707 158.431 17.8707C160.612 17.8707 162.254 18.434 163.381 19.5667C164.502 20.6873 165.065 22.2874 165.065 24.373V26.2847C165.065 28.3582 164.502 29.9523 163.381 31.073C162.266 32.1937 160.618 32.757 158.431 32.757ZM158.431 29.8085C159.39 29.8085 160.121 29.5209 160.618 28.9455C161.128 28.3702 161.379 27.5432 161.379 26.4705V24.1812C161.379 23.0905 161.128 22.2515 160.618 21.6762C160.121 21.0889 159.39 20.8012 158.431 20.8012C157.472 20.8012 156.723 21.0948 156.213 21.6762C155.716 22.2515 155.464 23.0845 155.464 24.1812V26.4705C155.464 27.5432 155.716 28.3702 156.213 28.9455C156.723 29.5209 157.46 29.8085 158.431 29.8085Z" fill="#303030"/>
<path d="M170.902 24.1694L169.967 21.7123H170.86C171.117 20.5737 171.591 19.6747 172.268 19.0215C172.951 18.3683 173.892 18.0447 175.103 18.0447C175.354 18.0447 175.576 18.0627 175.78 18.1046C175.984 18.1346 176.164 18.1705 176.325 18.2185L176.529 21.8981C176.319 21.8322 176.074 21.7842 175.798 21.7543C175.522 21.7183 175.229 21.6944 174.923 21.6944C173.946 21.6944 173.113 21.9101 172.418 22.3416C171.735 22.7731 171.231 23.3843 170.908 24.1694H170.902ZM167.318 32.3677V18.2604H170.83L170.674 22.5873L171.004 22.7191V32.3677H167.324H167.318Z" fill="#303030"/>
<path d="M187.107 32.3674L182.474 26.1527H181.222V23.7496H182.486L186.945 18.2541H191.2L185.476 25.1999V24.4508L191.415 32.3614H187.101L187.107 32.3674ZM178.045 32.3674V13.3579H181.713V32.3734H178.045V32.3674Z" fill="#303030"/>
<path fill-rule="evenodd" clip-rule="evenodd" d="M0 0L10.4891 18.8581H20.6955L9.98322 0H0ZM41.7075 0L31.219 18.857H21.0126L31.7243 0H41.7075ZM20.9322 18.9985L26.0363 28.1749L20.8536 37.4926H10.4267L20.9322 18.9985Z" fill="#303030"/>
</svg>
