<svg width="27" height="23" viewBox="0 0 27 23" fill="none" xmlns="http://www.w3.org/2000/svg">
<g id="&#208;&#161;&#208;&#187;&#208;&#190;&#208;&#185; 1">
<g id="Ao1ghT.tif">
<g id="Group">
<path id="Vector" d="M5.24716 22.9959C4.12762 22.9959 3.222 22.9943 2.31597 22.9971C2.04727 22.9979 1.77977 22.9838 1.51227 22.9576C0.818552 22.8896 0.377826 22.166 0.638878 21.5203C0.860852 20.9708 1.18515 20.4748 1.47481 19.9612C2.26803 18.5532 3.0673 17.1489 3.86536 15.7437C4.80281 14.094 5.74267 12.4455 6.68012 10.7954C7.51807 9.32053 8.354 7.84406 9.19113 6.36839C10.0581 4.84036 10.9242 3.31191 11.7936 1.78549C12.0458 1.34275 12.2754 0.885506 12.5824 0.477009C12.9546 -0.0177 13.4787 -0.132514 14.0025 0.155529C14.2418 0.287263 14.384 0.512057 14.5153 0.736852C15.07 1.68639 15.6203 2.63874 16.165 3.59391C16.6927 4.52008 17.2491 5.43054 17.7406 6.37726C18.2707 7.3981 18.2792 8.43102 17.7265 9.43897C16.9171 10.9146 16.0812 12.3754 15.2545 13.8414C14.4605 15.249 13.6713 16.659 12.866 18.0601C12.188 19.2401 11.5736 20.4583 10.8179 21.5916C10.2571 22.4323 9.45259 22.8996 8.43336 22.9645C7.30052 23.0366 6.16648 22.9726 5.24716 22.9959Z" fill="#F94E28"/>
<path id="Vector_2" d="M21.1363 22.9959C19.9491 22.9959 18.7623 22.9959 17.575 22.9959C17.3333 22.9959 17.0932 22.9749 16.8523 22.9628C16.1989 22.9306 15.6587 22.1342 15.9713 21.4787C16.2722 20.8478 16.6412 20.2564 16.9901 19.6534C17.853 18.1624 18.7228 16.675 19.593 15.1885C19.8399 14.7667 20.0631 14.3292 20.3826 13.9537C20.7762 13.4909 21.4985 13.4743 21.9146 13.9203C22.2011 14.2273 22.3928 14.5995 22.6031 14.9569C23.7009 16.8233 24.7947 18.6917 25.8844 20.5626C26.0693 20.8805 26.2663 21.1939 26.3912 21.544C26.6216 22.1889 26.2026 22.8714 25.521 22.9548C25.2612 22.9866 25.0001 22.9971 24.7383 22.9967C23.5377 22.9951 22.3372 22.9959 21.1367 22.9959H21.1363Z" fill="#F94E28"/>
</g>
</g>
</g>
</svg>
