<svg width="32" height="32" viewBox="0 0 32 32" fill="none" xmlns="http://www.w3.org/2000/svg">
<path d="M16.5252 3C16.6273 3.08307 16.7466 3.13874 16.8593 3.20413C17.5463 3.60399 18.2356 4.00032 18.924 4.39798C19.7502 4.87516 20.576 5.35235 21.4023 5.82953C22.0906 6.22719 22.779 6.62484 23.4674 7.0225C23.4767 7.0278 23.486 7.03266 23.4948 7.0384C23.5677 7.08524 23.5677 7.1007 23.4899 7.14268C23.0583 7.37685 22.6261 7.61014 22.1945 7.84432C21.8123 8.05154 21.431 8.25921 21.0492 8.46687C21.0276 8.4788 21.0046 8.48896 20.9838 8.50177C20.9361 8.53138 20.8937 8.52475 20.8455 8.49691C20.5124 8.30339 20.1784 8.11207 19.8443 7.92031C19.201 7.5505 18.5577 7.18112 17.9144 6.8113C17.4765 6.55945 17.0378 6.30849 16.6017 6.05355C16.5332 6.01378 16.4806 6.00539 16.4081 6.04648C15.9632 6.30009 15.5152 6.54885 15.0685 6.79937C14.6311 7.04459 14.1932 7.28981 13.7558 7.53547C13.3246 7.7776 12.8933 8.01973 12.4616 8.26186C12.326 8.33785 12.1895 8.41252 12.056 8.49161C11.9937 8.52828 11.9434 8.52431 11.8802 8.48808C11.0968 8.0427 10.3121 7.60042 9.52784 7.15726C9.51547 7.15019 9.50265 7.14445 9.49116 7.13649C9.443 7.10291 9.44079 7.08082 9.4894 7.05033C9.57025 6.99952 9.65376 6.95313 9.73594 6.90541C10.5432 6.43795 11.3504 5.97092 12.1581 5.5039C12.8982 5.0762 13.6391 4.64894 14.3797 4.22124C15.0433 3.83773 15.707 3.45333 16.3706 3.06893C16.4042 3.04949 16.4413 3.03491 16.4629 3H16.5266L16.5252 3Z" fill="#FFC737"/>
<path d="M16.3556 29.5103C16.1117 29.3605 15.8683 29.2098 15.6239 29.0609C15.0628 28.7185 14.5021 28.3761 13.9396 28.0363C13.865 27.9912 13.8318 27.9373 13.8323 27.849C13.8345 26.937 13.8336 26.0255 13.834 25.1135C13.834 24.9872 13.8486 24.9788 13.9573 25.0446C14.5494 25.4043 15.1406 25.7648 15.7322 26.1249C15.9222 26.2407 16.1139 26.3538 16.3017 26.4735C16.3645 26.5137 16.4126 26.5111 16.4749 26.4726C16.911 26.2035 17.3493 25.9384 17.7867 25.6716C18.1186 25.4692 18.4508 25.2673 18.7826 25.0649C18.7946 25.0574 18.8069 25.0503 18.8193 25.0433C18.928 24.9801 18.9417 24.9872 18.9421 25.114C18.9426 25.8174 18.9421 26.5208 18.9421 27.2238C18.9421 27.4288 18.9386 27.6338 18.9439 27.8388C18.9461 27.9307 18.9152 27.9886 18.8352 28.0367C18.3324 28.339 17.8318 28.6447 17.3312 28.95C17.0268 29.136 16.7232 29.3234 16.4192 29.5103H16.3556Z" fill="#FFC737"/>
<path d="M23.4165 12.1536C23.356 12.2234 23.3555 12.2234 23.3555 12.3304C23.3555 13.2459 23.3555 14.1609 23.3555 15.0764C23.3555 15.1082 23.3524 15.1405 23.356 15.1718C23.3639 15.2456 23.3281 15.2894 23.2663 15.3243C23.0723 15.4334 22.8801 15.5456 22.687 15.6565C22.1418 15.9698 21.5966 16.2835 21.0513 16.5968C20.4602 16.9365 19.869 17.2763 19.2778 17.6161C19.189 17.6673 19.1011 17.7199 19.0114 17.769C18.9619 17.7959 18.9402 17.8339 18.9424 17.8891C18.9438 17.928 18.9424 17.9669 18.9424 18.0058C18.9424 19.5606 18.9424 21.1159 18.9424 22.6707C18.9424 22.7025 18.9393 22.7348 18.9429 22.7661C18.9526 22.8541 18.9164 22.9071 18.8395 22.9535C18.201 23.3383 17.5648 23.7271 16.9281 24.1151C16.7832 24.2034 16.636 24.2878 16.4947 24.3811C16.4195 24.4306 16.3603 24.4297 16.283 24.3824C15.6388 23.9865 14.992 23.5946 14.346 23.2014C14.2011 23.113 14.0579 23.0224 13.9112 22.9371C13.8551 22.9044 13.8304 22.8629 13.8335 22.7997C13.8352 22.7644 13.8335 22.729 13.8335 22.6937C13.8335 21.0964 13.8335 19.4988 13.8335 17.9015C13.8335 17.8662 13.8313 17.8308 13.8335 17.7955C13.8392 17.7226 13.8052 17.6793 13.7429 17.6435C12.7801 17.0925 11.8182 16.5398 10.8564 15.9866C10.4123 15.7312 9.97002 15.4727 9.52421 15.22C9.44556 15.1754 9.41772 15.1215 9.41772 15.0335C9.41993 14.118 9.41993 13.203 9.41772 12.2875C9.41772 12.1983 9.44865 12.1488 9.52686 12.105C10.0946 11.7887 10.6597 11.4675 11.2257 11.1471C11.444 11.0238 11.6631 10.9015 11.8796 10.7746C11.9424 10.738 11.9954 10.7397 12.0573 10.7746C12.4231 10.9819 12.7903 11.1869 13.157 11.3928C13.6625 11.676 14.1679 11.9592 14.6734 12.2424C15.1541 12.5124 15.6344 12.7828 16.1147 13.0528C16.2194 13.1115 16.3259 13.1676 16.4297 13.2282C16.4823 13.2591 16.526 13.2525 16.5773 13.2229C17.2445 12.8376 17.9125 12.4545 18.5801 12.0706C19.3304 11.6389 20.0815 11.2081 20.8304 10.7742C20.9046 10.7309 20.9616 10.7495 21.0266 10.7866C21.278 10.9306 21.5303 11.0729 21.7821 11.2156C22.3048 11.5116 22.8275 11.8077 23.3498 12.1037C23.3736 12.1174 23.4028 12.1253 23.4169 12.1527L23.4165 12.1536Z" fill="#FFC737"/>
<path d="M5.00563 18.8028C5.00563 17.4919 5.00563 16.1809 5.00608 14.87C5.00608 14.8254 4.98443 14.7635 5.02287 14.7396C5.07058 14.71 5.11212 14.767 5.15144 14.7913C5.90964 15.2513 6.6665 15.7135 7.42426 16.1743C7.48391 16.2105 7.5409 16.2543 7.61646 16.2574C7.65446 16.2587 7.67213 16.287 7.67522 16.3214C7.67876 16.3634 7.6792 16.4063 7.6792 16.4482C7.6792 18.049 7.6792 19.6498 7.6792 21.2506C7.6792 21.2859 7.68097 21.3213 7.6792 21.3566C7.67522 21.4242 7.7035 21.4684 7.76271 21.502C8.33621 21.8298 8.90883 22.1594 9.48146 22.4886C10.0726 22.8284 10.6638 23.1682 11.2546 23.5079C11.4993 23.6489 11.7428 23.7929 11.9898 23.9299C12.0644 23.9714 12.0936 24.0222 12.0932 24.1071C12.091 25.0186 12.0918 25.9305 12.0918 26.842C12.0918 26.8562 12.0918 26.8703 12.091 26.8845C12.0848 26.9609 12.0644 26.9742 11.9982 26.937C11.8656 26.8628 11.7348 26.7855 11.6032 26.7099C10.8719 26.2875 10.1407 25.866 9.40988 25.4432C8.77363 25.0751 8.13827 24.7062 7.50246 24.3381C6.71069 23.88 5.91891 23.4209 5.12493 22.9662C5.03612 22.9154 5.00298 22.858 5.00342 22.7573C5.00608 21.4392 5.00519 20.1212 5.00519 18.8032L5.00563 18.8028Z" fill="#FFC737"/>
<path d="M27.9986 18.6994C27.9986 19.9931 27.9986 21.2868 27.9986 22.5805C27.9986 22.6123 27.996 22.6445 27.999 22.6759C28.007 22.7537 27.9699 22.7992 27.9045 22.8363C27.68 22.9631 27.4578 23.0943 27.2342 23.2234C26.7509 23.5026 26.2675 23.7818 25.7837 24.0611C25.1655 24.4181 24.5474 24.7746 23.9293 25.1321C23.4247 25.4242 22.9201 25.7166 22.4155 26.0087C21.9507 26.2778 21.4859 26.5469 21.0211 26.8159C21.0087 26.823 20.9968 26.8305 20.9835 26.8354C20.9354 26.8544 20.9195 26.846 20.9137 26.7939C20.9106 26.766 20.912 26.7373 20.912 26.709C20.912 25.8112 20.9137 24.9134 20.9093 24.0156C20.9089 23.9078 20.9473 23.853 21.0388 23.8013C21.6136 23.4752 22.1845 23.1421 22.7571 22.8129C23.5749 22.3423 24.3923 21.8713 25.2128 21.4056C25.3003 21.3557 25.3272 21.2996 25.3268 21.2046C25.3246 19.6175 25.3255 18.0304 25.325 16.4438C25.325 16.2198 25.3206 16.2604 25.4819 16.1597C26.2666 15.6684 27.0522 15.1779 27.8373 14.6875C27.8705 14.6667 27.9036 14.6468 27.9376 14.6283C27.9721 14.6097 27.9924 14.6238 27.9955 14.6605C27.9986 14.6994 27.9982 14.7383 27.9982 14.7772C27.9982 16.085 27.9982 17.3929 27.9982 18.7007L27.9986 18.6994Z" fill="#FFC737"/>
<path d="M5.00577 11.1228C5.00577 10.6774 5.00974 10.2325 5.00312 9.78711C5.00135 9.67091 5.03537 9.60287 5.13744 9.54145C5.91286 9.07575 6.68431 8.60387 7.45576 8.13198C7.52071 8.09222 7.57285 8.08824 7.64045 8.12801C8.04783 8.36881 8.45785 8.60564 8.867 8.84379C9.27923 9.0837 9.69102 9.32406 10.1033 9.56398C10.1125 9.56929 10.1223 9.5737 10.1311 9.57945C10.2044 9.62363 10.2049 9.64131 10.1293 9.68549C9.61061 9.98815 9.09189 10.2904 8.57273 10.5926C8.27051 10.7684 7.96962 10.9474 7.66564 11.1193C7.58434 11.1652 7.55518 11.2213 7.55562 11.3141C7.55871 12.2044 7.55739 13.0947 7.55739 13.9855C7.55739 14.0173 7.55871 14.0491 7.55606 14.0809C7.55076 14.145 7.5322 14.1556 7.47476 14.1224C7.36474 14.0588 7.25649 13.9921 7.1478 13.9258C6.5142 13.5401 5.88061 13.1544 5.24701 12.7682C5.18648 12.7315 5.12727 12.6926 5.06674 12.6569C5.02609 12.633 5.00621 12.5999 5.00709 12.553C5.00754 12.4929 5.00665 12.4328 5.00665 12.3728C5.00665 11.9557 5.00665 11.539 5.00665 11.1219L5.00577 11.1228Z" fill="#FFC737"/>
<path d="M27.8917 11.1338C27.8917 11.5792 27.8886 12.0241 27.8939 12.4695C27.8952 12.5742 27.8608 12.6374 27.7706 12.6913C27.0023 13.1548 26.2366 13.6231 25.4695 14.0888C25.432 14.1118 25.3922 14.1599 25.348 14.133C25.3056 14.1069 25.3264 14.0486 25.3264 14.0044C25.3255 13.1141 25.3237 12.2234 25.3281 11.3331C25.3286 11.2244 25.2941 11.1594 25.2009 11.1033C24.4321 10.6407 23.6659 10.1732 22.8989 9.70754C22.7898 9.64127 22.7889 9.62757 22.8954 9.56262C23.5926 9.13845 24.2898 8.71429 24.987 8.29056C25.0776 8.23533 25.1686 8.18099 25.2579 8.12399C25.3118 8.08953 25.3591 8.09174 25.4147 8.12532C25.9604 8.45846 26.5074 8.78984 27.054 9.12166C27.2864 9.26305 27.5157 9.40974 27.7525 9.54362C27.859 9.60371 27.8961 9.67705 27.8943 9.79812C27.8877 10.243 27.8917 10.6884 27.8917 11.1338Z" fill="#FFC737"/>
<path d="M19.0147 9.62986C19.0125 9.65549 18.9935 9.66609 18.9754 9.67714C18.9149 9.71381 18.8548 9.75048 18.7938 9.78627C18.025 10.2347 17.2553 10.6819 16.4883 11.1334C16.4118 11.1785 16.357 11.1719 16.2859 11.1281C15.5114 10.654 14.7355 10.1826 13.9601 9.71027C13.8359 9.63472 13.8355 9.63119 13.9574 9.55961C14.5857 9.19244 15.2149 8.8266 15.8432 8.45987C16.0261 8.35295 16.2099 8.24735 16.3906 8.136C16.4657 8.08961 16.5258 8.09049 16.6036 8.13821C17.2173 8.51598 17.8341 8.8889 18.45 9.26313C18.6162 9.36387 18.7823 9.46505 18.948 9.56623C18.9745 9.58258 19.0054 9.59495 19.0147 9.62942V9.62986Z" fill="#FFC737"/>
<path d="M11.9851 20.2816C11.9851 20.7159 11.9851 21.1507 11.9851 21.585C11.9851 21.6098 11.9851 21.6345 11.9851 21.6592C11.9833 21.7861 11.9714 21.7931 11.8631 21.7317C11.1102 21.3058 10.3573 20.879 9.60356 20.4544C9.4012 20.3404 9.41975 20.3828 9.41975 20.1367C9.41931 19.2287 9.41931 18.3212 9.42064 17.4132C9.42064 17.3663 9.39501 17.3023 9.44494 17.2766C9.48603 17.2559 9.52756 17.3045 9.56556 17.3279C10.3383 17.7976 11.1098 18.2686 11.8834 18.7365C11.9599 18.7829 11.9877 18.8381 11.9868 18.9251C11.9837 19.3771 11.9855 19.8296 11.9855 20.2816H11.9851Z" fill="#FFC737"/>
<path d="M23.463 18.8687C23.463 19.3211 23.4608 19.7731 23.4648 20.2256C23.4657 20.3188 23.4365 20.3714 23.3534 20.4178C22.7119 20.7761 22.073 21.1393 21.4336 21.5007C21.2892 21.5825 21.1451 21.6655 21.0002 21.7464C20.9299 21.7853 20.9158 21.7764 20.9118 21.6969C20.9109 21.6757 20.9118 21.6545 20.9118 21.6333C20.9118 20.7783 20.9118 19.9229 20.9118 19.068C20.9118 19.0468 20.9136 19.0255 20.9118 19.0043C20.9048 18.9319 20.9379 18.8872 20.9998 18.8506C21.2335 18.7114 21.4646 18.5678 21.697 18.4264C22.2312 18.1012 22.7653 17.776 23.2995 17.4508C23.3176 17.4398 23.3362 17.4292 23.3543 17.4186C23.4551 17.3594 23.4626 17.3629 23.463 17.4795C23.4634 17.9426 23.463 18.4052 23.463 18.8682V18.8687Z" fill="#FFC737"/>
</svg>
